<svg width="155" height="325" viewBox="0 0 155 325" fill="none" xmlns="http://www.w3.org/2000/svg">
<path d="M154.916 185.251C155.012 205.151 153.288 220.151 148.881 234.651C142.27 256.551 130.199 274.651 113.433 289.251C93.6966 306.451 71.1822 317.751 45.8896 322.751C34.0097 325.051 22.034 325.451 9.96246 324.151C-6.51611 322.451 -22.803 319.251 -38.611 313.851C-45.7006 311.351 -52.7902 308.651 -59.6882 305.651C-68.7897 301.851 -77.029 296.551 -84.7893 290.351C-91.4957 284.951 -98.0105 279.451 -103.95 273.151C-111.519 265.151 -117.842 256.251 -122.537 246.251C-129.243 232.051 -134.8 217.451 -138.44 202.051C-139.973 195.551 -140.836 188.851 -141.219 182.151C-141.698 174.451 -142.081 166.651 -141.985 158.951C-141.794 141.251 -136.716 124.851 -128.572 109.351C-118.896 90.8512 -105.1 76.2512 -88.3341 64.7512C-84.1186 61.8512 -80.0948 58.7512 -76.1668 55.3512C-64.4785 45.0512 -52.2154 35.6512 -39.1858 27.2512C-19.5457 14.7512 1.53157 6.25116 24.2375 2.05116C35.4468 0.0511563 46.7518 -0.748844 58.0569 0.851156C76.5473 3.55116 91.1098 12.7512 101.265 29.3512C105.481 36.3512 108.642 43.8512 111.421 51.6512C112.858 55.7512 114.199 59.7512 115.54 63.8512C119.468 75.6512 124.067 87.1512 129.528 98.2512C133.168 105.651 136.617 113.151 140.162 120.551C150.413 142.451 155.3 165.651 154.916 185.251Z" fill="#55BBDA"/>
<mask id="mask0_25_12" style="mask-type:alpha" maskUnits="userSpaceOnUse" x="-142" y="0" width="297" height="325">
<path d="M154.916 185.251C155.012 205.151 153.288 220.151 148.881 234.651C142.27 256.551 130.199 274.651 113.433 289.251C93.6966 306.451 71.1822 317.751 45.8896 322.751C34.0097 325.051 22.034 325.451 9.96246 324.151C-6.51611 322.451 -22.803 319.251 -38.611 313.851C-45.7006 311.351 -52.7902 308.651 -59.6882 305.651C-68.7897 301.851 -77.029 296.551 -84.7893 290.351C-91.4957 284.951 -98.0105 279.451 -103.95 273.151C-111.519 265.151 -117.842 256.251 -122.537 246.251C-129.243 232.051 -134.8 217.451 -138.44 202.051C-139.973 195.551 -140.836 188.851 -141.219 182.151C-141.698 174.451 -142.081 166.651 -141.985 158.951C-141.794 141.251 -136.716 124.851 -128.572 109.351C-118.896 90.8512 -105.1 76.2512 -88.3341 64.7512C-84.1186 61.8512 -80.0948 58.7512 -76.1668 55.3512C-64.4785 45.0512 -52.2154 35.6512 -39.1858 27.2512C-19.5457 14.7512 1.53157 6.25116 24.2375 2.05116C35.4468 0.0511563 46.7518 -0.748844 58.0569 0.851156C76.5473 3.55116 91.1098 12.7512 101.265 29.3512C105.481 36.3512 108.642 43.8512 111.421 51.6512C112.858 55.7512 114.199 59.7512 115.54 63.8512C119.468 75.6512 124.067 87.1512 129.528 98.2512C133.168 105.651 136.617 113.151 140.162 120.551C150.413 142.451 155.3 165.651 154.916 185.251Z" fill="black"/>
</mask>
<g mask="url(#mask0_25_12)">
<path d="M-2.35893 -149.949C-3.70021 -149.549 -5.1373 -149.149 -6.47858 -148.749C-14.8137 -146.649 -21.9033 -142.249 -28.3223 -136.549C-37.1364 -128.649 -8.06372 -119.549 -15.2491 -110.049C-28.2787 -92.5489 -39.7754 -73.8489 -50.5056 -54.7489C-73.2115 -14.1489 -93.1391 27.8511 -109.809 71.5511C-117.474 91.5511 -123.126 112.251 -126.575 133.551C-129.545 151.851 -130.791 170.251 -129.833 188.751C-128.779 211.051 -124.851 232.751 -116.516 253.351C-110.672 267.951 -102.911 281.251 -92.4685 292.851C-91.5104 293.851 -90.5523 294.851 -89.4985 295.851C-89.4027 295.951 -89.2111 295.951 -88.8278 295.951C-89.1153 293.651 -89.3069 291.551 -89.5943 289.351C-90.6482 279.851 -90.5523 270.351 -89.6901 260.851C-88.6362 249.051 -86.2411 237.451 -82.8879 226.151C-82.6005 225.151 -82.6005 223.951 -82.8879 222.851C-86.3369 206.551 -87.5824 190.151 -86.8159 173.551C-85.283 139.451 -76.3731 107.351 -61.4274 77.2511C-39.6796 33.5511 -9.40501 -2.34885 -6.766 -29.8489C7.70065 -39.9489 23.0296 -48.5489 39.6039 -54.4489C44.6816 -56.2489 49.9509 -57.4489 55.1244 -58.7489C56.7531 -59.1489 58.4776 -59.1488 60.1063 -59.1488C60.777 -59.1488 61.5434 -58.8488 62.214 -58.6488C62.214 -58.4488 62.214 -58.3488 62.214 -58.1488C61.8308 -57.9488 61.3518 -57.5489 60.9686 -57.5489C45.9271 -55.9489 32.2269 -50.0489 18.9099 -42.9489C-3.98763 -30.8489 12.4387 -14.8489 -5.76439 3.95114C-31.5361 30.5511 -52.0385 61.0512 -66.3135 95.8512C-74.5528 115.851 -79.9179 136.551 -82.5047 158.151C-84.7082 177.251 -84.5166 196.251 -81.2592 215.251C-81.0676 216.151 -80.876 216.951 -80.6844 218.351C-80.3011 217.451 -80.0137 216.951 -79.8221 216.451C-72.6367 196.751 -62.7687 178.751 -50.2182 162.251C-49.3559 161.051 -49.1643 159.951 -49.1643 158.551C-49.3559 151.651 -49.9308 144.751 -49.4517 137.951C-47.1524 102.351 -34.7935 71.3511 -9.78822 46.4511C2.76231 34.0511 -19.2207 25.4511 -2.35893 21.4511C15.9399 17.1511 33.5682 18.8512 50.2383 28.3512C52.7293 29.7512 55.1244 31.4511 57.6154 33.0511C60.3937 31.6511 63.2679 30.2512 66.2379 28.8512C67.1959 28.4512 67.1001 27.5512 67.1001 26.8512C67.1959 23.4512 67.2917 19.9511 67.2917 16.5511C67.1001 2.75115 67.1959 -11.1489 66.6211 -24.9489C66.0463 -41.8489 64.6092 -58.7489 61.3518 -75.4489C59.4357 -85.4489 56.4657 -95.0489 52.2503 -104.349C51.867 -105.149 51.5796 -105.949 51.5796 -106.849C51.867 -106.349 52.2503 -105.849 52.4419 -105.349C57.807 -94.4489 61.3518 -82.9489 63.5553 -70.9489C66.0463 -57.5489 67.3875 -44.0489 68.2498 -30.5489C69.4953 -12.3489 69.5911 5.85115 69.3995 24.1512C69.3995 24.9512 69.3995 25.7511 69.3995 26.5511C69.3995 26.6511 69.4953 26.8512 69.6869 27.1512C70.5491 26.8512 71.5072 26.5512 72.4653 26.1512C83.0039 22.1512 93.8302 19.8511 105.135 20.2511C132.536 21.0511 153.613 33.8512 168.463 57.8512C176.127 70.3512 180.247 84.1512 181.684 98.8512C184.079 122.751 179.289 145.351 169.517 166.851C166.643 173.151 163.098 179.151 159.649 185.251C158.882 186.751 158.691 187.851 159.17 189.451C163.385 202.851 164.439 216.651 163.002 230.651C159.936 261.351 147.865 288.051 129.278 311.751C117.59 326.551 103.89 338.851 87.6027 347.851C76.9682 353.751 65.663 357.751 53.5915 358.951C39.4123 360.351 25.8079 357.951 13.0658 350.951C11.4371 350.051 10.2874 350.151 8.75452 351.151C-3.98762 359.851 18.9535 365.851 3.91198 368.451C-15.3449 371.751 -33.8354 369.451 -50.8888 358.951C-65.5471 349.951 -75.6067 336.751 -82.3131 320.551C-84.5166 315.151 -86.2411 309.651 -87.4866 303.951C-87.774 302.751 -88.0614 301.751 -89.0195 300.851C-102.72 287.851 -112.492 272.051 -119.581 254.351C-125.426 239.651 -129.066 224.351 -131.174 208.551C-133.665 190.151 -133.761 171.751 -132.132 153.251C-129.449 123.451 -122.168 94.9512 -111.342 67.3512C-92.0852 18.2512 -69.3793 -29.0489 -42.2663 -73.9489C-32.4942 -90.1489 -58.5968 -105.749 -46.5253 -120.249C-41.256 -126.549 -35.6035 -132.349 -29.4719 -137.749C-21.4243 -144.249 -12.6101 -148.749 -2.35893 -149.949ZM156.966 183.051C157.158 183.051 157.445 183.151 157.637 183.151C158.116 182.451 158.595 181.751 158.978 181.051C161.852 175.551 164.918 170.251 167.505 164.551C177.085 143.051 181.684 120.551 178.81 96.7511C176.894 81.1511 171.912 66.7512 162.81 54.1512C148.823 34.7512 130.236 24.3511 106.956 23.2511C94.5967 22.6511 82.7164 25.2512 71.2198 29.8512C69.9743 30.3512 69.5911 31.0512 69.5911 32.3512C69.5911 35.7512 69.4953 39.0511 69.3037 42.4511C69.2079 43.7511 69.6869 44.7512 70.4533 45.6512C75.8184 52.1512 79.9382 59.3511 83.1956 67.2511C86.453 75.0511 88.6565 83.1511 89.9978 91.5511C90.1894 92.8511 90.6685 93.6511 92.0098 94.0511C93.5427 94.4511 95.0756 95.1511 96.5127 95.7511C111.363 101.751 124.488 110.551 135.027 123.151C148.344 139.051 154.858 157.851 156.104 178.751C156.296 180.151 156.775 181.651 156.966 183.051ZM54.6454 35.0511C54.4538 34.7511 54.358 34.6511 54.2622 34.5511C54.0706 34.3511 53.7832 34.1511 53.4957 33.9511C43.3403 26.9511 32.2269 23.1512 20.0596 22.3512C4.44326 21.4512 26.4263 25.3511 12.7261 33.0511C-4.80633 42.9511 -18.2191 57.2511 -28.2787 75.0511C-42.1705 99.5511 -48.0147 126.151 -46.5776 154.551C-46.5776 155.351 -46.386 156.051 -46.2902 156.851C-46.0027 156.751 -45.8111 156.751 -45.7153 156.651C-45.2363 156.151 -44.7573 155.551 -44.374 155.051C-23.9675 130.651 -36.3699 111.651 -7.43663 99.5511C-6.28696 99.0511 -5.61632 98.2511 -4.94568 97.2511C-1.20926 91.5511 2.43135 85.6512 6.45518 80.1512C19.4847 62.2512 34.9094 47.0511 53.5915 35.7511C53.9748 35.4511 54.2622 35.2511 54.6454 35.0511ZM156.679 191.351C156.487 191.351 156.391 191.451 156.2 191.451C156.104 192.151 155.912 192.851 155.912 193.551C155.529 199.251 154.667 204.851 153.23 210.351C144.511 244.951 125.254 271.451 96.3211 290.351C82.9083 299.051 68.2498 304.251 52.2503 304.151C51.0048 304.151 50.5258 304.851 50.0467 305.851C41.52 322.051 29.9276 335.551 15.7483 346.651C15.1735 347.051 14.6945 347.551 14.0238 348.151C14.8861 348.651 15.5567 349.051 16.2273 349.351C30.0234 356.451 44.5858 358.151 59.6273 355.251C72.7527 352.751 84.7286 347.151 95.842 339.451C114.907 326.251 129.949 309.051 141.541 288.651C153.134 268.151 160.128 246.051 160.798 222.151C161.086 212.451 159.936 202.851 157.349 193.451C157.158 192.651 156.966 191.951 156.679 191.351ZM89.5188 142.851C89.3272 143.651 89.2314 144.051 89.1356 144.451C87.3153 154.651 84.7284 164.751 81.4711 174.551C75.9143 191.651 68.633 207.951 60.0105 223.551C59.3399 224.751 58.9566 225.751 59.3399 227.151C61.8308 235.851 63.0763 244.751 62.9805 253.851C62.9805 254.451 63.0763 255.051 63.1721 255.651C63.4595 255.651 63.6511 255.751 63.7469 255.751C64.4176 255.551 65.0882 255.451 65.7589 255.151C100.057 244.451 127.841 223.951 149.877 194.651C153.23 190.151 153.134 190.151 153.23 184.451C153.23 182.851 153.134 181.351 152.368 179.851C140.871 156.751 122.668 144.351 97.7582 142.851C95.1714 142.651 92.393 142.851 89.5188 142.851ZM20.2512 178.551C20.9218 177.751 21.4967 177.051 22.1673 176.351C31.173 165.951 41.52 157.451 53.3999 150.951C54.9328 150.151 56.9447 149.551 57.807 148.151C58.6692 146.751 58.5734 144.651 58.765 142.851C60.4895 127.151 62.1182 111.351 63.7469 95.6512C63.9385 94.0512 63.9385 92.3511 64.0344 90.5511C63.4595 90.4511 63.0763 90.3511 62.7889 90.2511C59.5315 90.0511 56.1783 89.7511 52.9209 89.7511C34.143 89.5511 16.1315 93.1511 -1.49669 99.7511C-3.02958 100.351 -4.08344 101.251 -4.84988 102.751C-18.3585 126.851 8.89387 152.551 3.33714 179.851C3.24134 180.351 3.24134 180.951 3.14553 181.751C20.7738 172.851 1.85652 170.751 20.2512 178.551ZM-8.39469 103.251C-8.49049 103.151 -8.5863 103.051 -8.68211 102.951C-9.54436 103.351 -10.4066 103.651 -11.173 104.051C-24.9691 110.351 -1.26152 118.351 -13.1414 127.951C-24.6381 137.151 -34.9851 147.551 -44.2782 159.051C-45.4279 160.451 -45.8111 161.851 -45.5237 163.651C-45.2363 165.351 -44.9489 167.151 -44.6615 168.851C-42.2663 182.851 -37.7635 196.051 -30.8655 208.251C-30.4822 208.951 -30.0032 209.651 -29.5242 210.551C-29.0451 209.951 -28.6619 209.651 -28.4703 209.251C-20.9017 199.451 -12.0876 191.151 -1.64475 184.651C-0.590885 184.051 -0.207665 183.151 -0.016054 182.051C5.34906 154.751 -22.2865 128.851 -9.06532 104.651C-8.77791 104.151 -8.5863 103.651 -8.39469 103.251ZM52.3461 301.251C53.3999 301.251 53.9748 301.251 54.5496 301.251C64.5134 300.951 73.9024 298.351 83.004 294.251C97.4706 287.651 109.83 277.951 120.56 265.951C136.272 248.351 147.002 228.051 151.505 204.351C151.984 202.051 152.272 199.751 152.559 197.551C128.799 228.051 99.195 249.051 63.0763 259.551C62.1182 274.051 58.5734 287.751 52.3461 301.251ZM-83.7501 305.451C-83.6543 306.251 -83.5585 306.651 -83.4627 307.051C-82.2173 310.951 -81.0676 314.851 -79.6305 318.551C-73.2115 334.551 -63.2477 347.551 -48.7811 356.351C-32.8774 366.051 -15.7282 368.451 2.28329 365.551C17.1332 363.251 -5.90375 357.351 6.64679 349.051C7.12582 348.751 7.50904 348.351 8.08387 347.851C5.68873 346.051 3.38941 344.451 1.09008 342.751C-2.35893 345.051 -6.09534 345.651 -9.92757 345.551C-12.3227 345.451 21.9234 345.351 19.6241 344.951C4.00778 342.251 -10.1714 335.951 -22.3388 325.251C-23.2968 324.451 -24.1591 324.051 -25.4045 324.251C-32.1109 324.951 -38.9131 324.451 -45.5237 323.351C-58.9365 320.951 -70.9122 315.251 -81.834 306.851C-82.3131 306.451 -82.8879 306.051 -83.7501 305.451ZM-2.83796 257.851C-5.42471 243.651 -4.17924 230.151 -0.251212 216.851C3.67682 203.551 10.1916 191.651 18.4309 180.951C18.2393 180.651 18.1435 180.451 18.0477 180.451C17.7602 180.251 17.4728 180.151 17.1854 180.051C11.2455 177.551 5.0181 176.151 -1.40088 175.951C-12.5143 175.551 13.6841 178.551 3.81617 183.751C2.6665 184.351 2.09168 185.151 1.99587 186.451C1.13362 193.451 -0.111863 200.551 -0.782502 207.551C-1.93217 218.251 -2.31539 228.951 -1.74056 239.651C-1.64475 241.151 -1.16572 241.951 -0.016054 242.751C5.25325 246.351 10.7142 249.451 16.5583 252.051C22.0192 254.351 -9.06532 256.351 -2.83796 257.851ZM-48.3021 279.851C-48.1105 279.751 -48.0147 279.651 -47.823 279.651C-51.272 255.151 -44.8531 233.351 -31.5361 213.351C-40.5418 198.451 -45.9069 182.251 -48.3979 164.551C-49.1643 165.551 -49.6434 166.051 -50.0266 166.551C-52.2301 169.651 -54.4336 172.751 -56.4455 175.851C-65.7387 190.151 -73.1157 205.451 -78.6725 221.751C-79.1515 223.251 -79.2473 224.651 -78.8641 226.151C-77.1396 232.751 -75.0318 239.351 -72.4451 245.651C-67.9422 256.451 -62.0023 266.351 -53.9546 274.651C-52.0385 276.451 -50.1224 278.051 -48.3021 279.851ZM4.10359 290.351C3.91198 289.551 3.72036 288.951 3.52875 288.351C-0.782502 274.251 -3.27344 259.851 -4.23149 245.051C-4.3273 243.551 -4.99795 242.751 -6.05181 241.951C-14.8659 235.051 -22.5304 226.851 -28.8535 217.451C-29.2368 216.851 -29.7158 216.351 -30.1948 215.751C-30.6738 216.451 -31.1529 217.051 -31.5361 217.651C-36.4222 225.351 -40.2544 233.651 -42.7454 242.551C-46.2902 255.051 -47.344 267.651 -45.0447 280.451C-44.7573 282.051 -44.0866 282.951 -42.8412 283.851C-33.4522 289.951 -23.2968 292.951 -12.2792 292.851C-6.81825 292.751 -1.45314 292.051 4.10359 290.351ZM-27.0332 321.251C-27.2248 320.851 -27.2248 320.751 -27.2248 320.651C-27.4165 320.451 -27.6081 320.151 -27.7997 319.951C-36.518 310.451 -42.8412 299.451 -46.0985 286.651C-46.386 285.551 -46.9608 284.851 -47.7272 284.251C-55.2001 278.751 -61.2358 271.751 -66.3135 263.851C-72.4451 254.351 -76.7563 244.051 -80.0137 233.151C-80.2053 232.351 -80.4928 231.651 -80.7802 230.851C-81.4508 231.751 -81.6424 232.551 -81.9298 233.351C-84.6124 243.751 -86.4327 254.251 -87.1033 264.951C-87.8698 276.151 -87.3908 287.351 -85.3788 298.351C-85.1872 299.551 -84.7082 300.551 -83.7501 301.351C-67.9422 314.851 -49.9308 322.051 -29.3326 321.451C-28.7577 321.451 -27.9913 321.351 -27.0332 321.251ZM21.6883 181.751C20.9218 182.751 20.347 183.351 19.868 184.051C15.4609 189.851 11.7245 196.051 8.5629 202.651C1.47329 217.651 -2.45473 233.451 -0.826036 250.351C-0.53862 253.151 -0.0595946 255.851 0.323628 258.751C3.67682 259.251 6.7426 259.751 9.90419 260.351C11.2455 260.651 12.2035 260.051 13.0658 259.051C26.9576 242.851 37.113 224.451 44.5858 204.251C44.969 203.151 44.7774 202.351 44.1068 201.451C39.9871 195.951 35.1969 191.051 29.7359 187.051C27.1492 185.251 24.4666 183.651 21.6883 181.751ZM47.6516 304.051C33.5682 302.751 21.5925 297.451 11.7245 287.151C1.76071 296.451 27.8634 304.551 16.0793 311.151C24.0312 325.651 -2.64635 337.651 10.8622 346.251C26.1911 334.951 38.4543 321.251 47.6516 304.051ZM-0.921848 96.6512C9.71257 93.0512 20.347 90.3511 31.2688 88.7511C42.1907 87.1511 53.2083 87.0512 64.226 87.8512C64.4176 86.0512 64.5134 84.5511 64.6092 83.0511C65.0882 76.1511 65.4714 69.3511 65.9505 62.4511C66.2379 57.5511 66.4295 52.5511 66.6211 47.5511C66.6211 46.7511 66.6211 45.8512 66.1421 45.3512C63.4595 42.1512 60.4895 39.3511 57.1364 36.7511C32.6101 51.2511 14.1196 72.0512 -0.921848 96.6512ZM152.463 172.451C150.643 154.251 144.224 138.051 132.536 124.351C121.326 111.051 107.243 102.151 90.8601 96.3512C92.6804 111.151 92.0097 125.451 89.9978 139.851C116.728 138.751 137.613 149.151 152.463 172.451ZM57.7112 221.251C58.286 220.251 58.6692 219.551 59.0525 218.851C60.5854 215.851 62.214 212.851 63.7469 209.751C73.7107 189.551 81.3753 168.551 85.6865 146.151C85.8781 145.251 85.8781 144.351 86.0697 143.351C77.4472 144.351 69.4953 146.751 61.8308 150.051C60.6812 150.551 60.4895 151.351 60.2979 152.451C57.9028 169.051 54.1664 185.351 48.8013 201.251C48.418 202.351 48.5138 203.151 49.0887 204.151C51.1006 207.551 53.0167 211.051 54.837 214.551C55.7951 216.551 56.6573 218.751 57.7112 221.251ZM49.1845 301.051C55.316 288.351 59.2441 274.851 60.2021 260.251C59.2441 260.451 58.5734 260.551 57.9986 260.651C50.2383 262.451 42.3823 263.851 34.4304 264.251C33.1849 264.351 32.5143 264.851 31.7479 265.751C26.1911 271.951 20.5386 278.051 14.9819 284.151C14.6945 284.451 14.407 284.851 14.1196 285.151C22.0715 294.651 36.9214 301.151 49.1845 301.051ZM67.0043 90.8512C65.0882 109.651 63.2679 128.251 61.3518 147.051C69.4953 143.551 77.9263 141.251 86.453 140.151C89.0397 128.651 89.6146 104.751 87.3153 95.1512C80.7047 93.1512 73.9981 91.6512 67.0043 90.8512ZM-42.937 287.651C-42.937 288.151 -43.0328 288.451 -42.937 288.651C-42.5537 289.751 -42.2663 290.951 -41.8831 292.051C-38.1467 302.651 -32.3025 311.751 -24.6381 319.751C-23.68 320.751 -22.722 321.251 -21.3807 320.951C-20.9017 320.851 -20.4226 320.851 -20.0394 320.751C-9.30919 319.051 0.942008 315.551 10.6184 310.551C11.0974 310.351 11.4806 309.951 11.8638 309.751C9.56452 304.351 7.26517 299.051 5.06165 293.651C-11.7043 298.251 -27.7039 296.651 -42.937 287.651ZM6.88195 289.351C15.3128 287.451 -3.31699 276.551 0.994264 270.751C-0.0595975 267.751 -1.11346 264.651 -2.16732 261.451C-14.7179 258.351 10.0435 253.251 -1.35733 245.551C-0.303465 260.751 2.28328 275.151 6.88195 289.351ZM-0.1554 341.651C-9.73596 333.351 19.5283 323.551 13.78 312.751C8.12743 315.051 2.76231 317.551 -2.69861 319.451C-8.25534 321.351 -13.9079 322.551 -19.752 324.151C-19.0814 324.751 -18.6023 325.251 -17.9317 325.751C-8.15953 333.651 2.85812 338.851 14.738 341.951C19.2409 343.051 -12.8975 343.951 -8.29888 343.851C-5.61632 343.751 -2.93376 343.351 -0.1554 341.651ZM15.6525 260.751C16.5148 260.851 16.898 261.051 17.1854 261.051C21.4967 261.151 25.7121 261.151 30.0234 261.251C31.173 261.251 31.6521 260.551 32.2269 259.851C40.562 249.251 48.1306 237.951 54.9328 226.151C55.6035 224.951 55.6035 224.051 55.2202 222.751C53.3041 217.451 50.909 212.351 48.0348 207.551C47.7474 207.151 47.46 206.751 46.981 206.251C39.5081 226.351 29.4485 244.551 15.6525 260.751ZM57.4238 152.551C48.3222 155.651 26.5744 173.451 23.5086 180.051C25.2331 181.051 26.9576 182.051 28.5863 183.251C30.215 184.351 31.7479 185.451 33.2807 186.651C34.8136 187.951 36.3465 189.251 37.8794 190.651C39.3165 191.951 40.6578 193.451 41.9991 194.851C43.3403 196.351 44.5858 197.851 46.1187 199.551C51.388 184.151 54.9328 168.651 57.4238 152.551ZM-28.2787 212.851C-21.8597 223.051 -14.1953 231.551 -4.99794 238.851C-4.71053 229.951 -4.71053 221.351 -4.1357 212.751C-3.56086 204.151 -2.31539 195.551 -1.26153 186.651C-11.9918 193.651 -20.8059 202.351 -28.2787 212.851ZM9.42516 284.751C7.12583 281.151 4.82649 277.751 2.43135 274.151C-6.8618 282.251 19.6241 288.651 8.03163 292.651C10.0435 298.151 12.0555 303.251 14.738 308.151C22.9773 304.151 3.58102 291.251 9.42516 284.751ZM86.8362 91.9511C86.932 81.6511 75.4352 53.8512 69.3037 49.6512C68.633 62.4512 67.8666 75.2512 67.1959 87.8512C73.8065 89.2512 80.2256 90.6511 86.8362 91.9511ZM56.9447 229.151C50.5258 240.151 43.532 250.551 35.7717 260.551C40.3704 260.851 56.2741 258.151 60.2021 256.451C61.0644 250.351 59.2441 234.451 56.9447 229.151ZM11.6287 282.551C15.1735 280.051 27.0534 266.851 27.8198 264.551C26.1911 264.551 24.5624 264.551 22.9337 264.551C21.305 264.551 19.6764 264.351 18.1435 264.351C16.419 264.251 14.5029 263.751 12.97 264.351C11.5329 264.851 10.479 266.551 9.23355 267.851C7.79647 269.251 6.45518 270.751 5.0181 272.251C6.8384 275.951 9.04194 279.351 11.6287 282.551ZM66.9085 41.2511C66.9085 37.8511 66.9085 34.9511 66.9085 31.7511C64.705 32.8511 62.5973 33.8511 60.2021 35.0511C62.5015 37.1511 64.5134 39.0511 66.9085 41.2511ZM1.09008 262.151C1.95233 264.551 2.62297 266.551 3.48522 268.851C5.30552 266.951 7.22162 265.551 8.5629 263.451C6.07196 263.051 3.86844 262.651 1.09008 262.151Z" fill="black"/>
</g>
</svg>
